<svg width="13" height="12" viewBox="0 0 13 12" fill="none" xmlns="http://www.w3.org/2000/svg">
<path d="M11.2478 2.92563C10.709 2.02503 9.97778 1.31184 9.05312 0.787219C8.12906 0.262602 7.12061 0 6.02778 0C4.93494 0 3.92649 0.262602 3.00183 0.787219C2.07778 1.31184 1.346 2.02503 0.807722 2.92563C0.269442 3.82624 0 4.80967 0 5.87477C0 6.93986 0.268839 7.9233 0.807722 8.8239C1.34661 9.72509 2.07778 10.4377 3.00244 10.9623C3.92649 11.4869 4.93494 11.7495 6.02778 11.7495C7.12061 11.7495 8.12906 11.4869 9.05372 10.9623C9.97778 10.4377 10.7096 9.72509 11.2484 8.8239C11.7867 7.9233 12.0556 6.93986 12.0556 5.87477C12.0556 4.80967 11.7867 3.82624 11.2478 2.92563ZM6.02778 0.975211C7.23333 0.975211 8.30146 1.3512 9.23456 2.10258C8.68 2.79228 7.85661 3.35978 6.76317 3.80626C6.15918 2.74117 5.50457 1.85173 4.79751 1.13912C5.2086 1.02985 5.61729 0.975211 6.02778 0.975211ZM2.11575 2.81989C2.57024 2.26355 3.11395 1.8294 3.74988 1.51569C4.48045 2.22125 5.15134 3.10188 5.76316 4.15933C4.5576 4.51182 3.28333 4.68806 1.94094 4.68806C1.59555 4.68806 1.33455 4.68043 1.15733 4.66456C1.34239 3.99073 1.66186 3.37623 2.11575 2.81989ZM1.00061 5.87477C1.00061 5.84304 1.00242 5.80427 1.00664 5.75727C1.01086 5.71027 1.01267 5.6715 1.01267 5.63978C1.16577 5.648 1.39905 5.65153 1.71249 5.65153C3.3195 5.65153 4.81439 5.43592 6.19656 5.0053C6.30928 5.22443 6.42621 5.47117 6.54617 5.74552C5.7505 5.91765 4.93434 6.33652 4.09829 7.00272C3.26223 7.66892 2.65222 8.36978 2.26644 9.10589C1.42256 8.17356 1.00061 7.09672 1.00061 5.87477ZM6.02778 10.7743C4.88612 10.7743 3.86139 10.4295 2.95301 9.74095C3.31528 9.04361 3.87164 8.37683 4.62331 7.74294C5.37437 7.10847 6.12 6.7131 6.85961 6.55624C7.32496 7.80933 7.639 9.1053 7.79994 10.4453C7.21284 10.6645 6.62212 10.7743 6.02778 10.7743ZM10.2954 8.44791C9.894 9.07416 9.37561 9.58762 8.74028 9.98769C8.59561 8.76574 8.31833 7.57492 7.90905 6.41524C8.47084 6.37647 8.97295 6.3565 9.41599 6.3565C9.89761 6.3565 10.4323 6.37647 11.0188 6.41524C10.938 7.14372 10.6969 7.82108 10.2954 8.44791ZM9.548 5.51053C8.84878 5.51053 8.202 5.53814 7.60706 5.59278C7.45395 5.20916 7.31772 4.89192 7.19717 4.64107C8.44251 4.10881 9.32618 3.46259 9.84879 2.70239C10.5721 3.53308 10.9663 4.48068 11.0302 5.54578C10.5408 5.52228 10.0465 5.51053 9.548 5.51053Z" fill="#080415"/>
</svg>
