<svg width="13" height="8" viewBox="0 0 13 8" fill="none" xmlns="http://www.w3.org/2000/svg">
<path d="M8.09606 0.499638H11.1902V1.22803H8.09606V0.499638ZM4.99567 3.38159C5.67965 3.06405 6.03792 2.58096 6.03792 1.83452C6.03792 0.358175 4.90572 0 3.59825 0H0V7.4103H3.69906C5.08563 7.4103 6.38689 6.76318 6.38689 5.25824C6.38689 4.32819 5.93401 3.64044 4.99567 3.38159ZM1.67815 1.26415H3.25238C3.85881 1.26415 4.4032 1.42818 4.4032 2.11142C4.4032 2.74049 3.97979 2.99332 3.37956 2.99332H1.67815V1.26415ZM3.46952 6.15217H1.6766V4.11148H3.50519C4.24345 4.11148 4.71029 4.41096 4.71029 5.16945C4.71029 5.9159 4.1535 6.15217 3.46952 6.15217ZM12.4 4.80526C12.4 3.21755 11.4431 1.89471 9.71217 1.89471C8.02937 1.89471 6.88475 3.12425 6.88475 4.73603C6.88475 6.40651 7.96888 7.55327 9.71217 7.55327C11.032 7.55327 11.8866 6.97688 12.2976 5.74735H10.9591C10.8134 6.20635 10.2209 6.44714 9.76025 6.44714C8.86999 6.44714 8.4047 5.94148 8.4047 5.08217H12.3891C12.3938 4.99337 12.4 4.90007 12.4 4.80526ZM8.4047 4.15212C8.45278 3.4463 8.93824 3.00536 9.66409 3.00536C10.4272 3.00536 10.8087 3.44028 10.8754 4.15212H8.4047Z" fill="#080415"/>
</svg>
