<svg width="12" height="12" viewBox="0 0 12 12" fill="none" xmlns="http://www.w3.org/2000/svg">
<path d="M11.8336 3.40008C11.8058 2.7856 11.7038 2.36315 11.5578 1.99709C11.4071 1.60853 11.1753 1.26065 10.8716 0.971453C10.5749 0.677758 10.2156 0.449544 9.82149 0.304991C9.44373 0.162644 9.01254 0.063275 8.38205 0.0361824C7.74685 0.00679522 7.5452 0 5.93417 0C4.32313 0 4.12148 0.00679522 3.48864 0.0338879C2.85815 0.0609806 2.4247 0.160438 2.0492 0.302696C1.65042 0.449544 1.29348 0.675463 0.996755 0.971453C0.69541 1.26065 0.461343 1.61082 0.312935 1.99488C0.16688 2.36315 0.0649231 2.78331 0.0371248 3.39779C0.00697221 4.01686 0 4.21339 0 5.78353C0 7.35367 0.00697221 7.5502 0.0347705 8.16698C0.0625688 8.78146 0.164617 9.20391 0.310671 9.56997C0.461343 9.95854 0.69541 10.3064 0.996755 10.5956C1.29348 10.8893 1.65278 11.1175 2.04684 11.2621C2.4247 11.4044 2.8558 11.5038 3.48638 11.5309C4.11913 11.5581 4.32087 11.5648 5.9319 11.5648C7.54294 11.5648 7.74459 11.5581 8.37743 11.5309C9.00792 11.5038 9.44137 11.4044 9.81688 11.2621C10.6143 10.9616 11.2448 10.3471 11.5531 9.56997C11.6991 9.20171 11.8012 8.78146 11.8289 8.16698C11.8567 7.5502 11.8637 7.35367 11.8637 5.78353C11.8637 4.21339 11.8614 4.01686 11.8336 3.40008ZM10.765 8.1218C10.7395 8.68659 10.6421 8.99159 10.561 9.19491C10.3616 9.69873 9.95134 10.0986 9.4344 10.2929C9.22578 10.372 8.91058 10.4669 8.33333 10.4917C7.70746 10.5188 7.51976 10.5255 5.93652 10.5255C4.35329 10.5255 4.16323 10.5188 3.53962 10.4917C2.96011 10.4669 2.64718 10.372 2.43855 10.2929C2.18131 10.2003 1.94715 10.0534 1.75709 9.86137C1.56006 9.67384 1.40938 9.44793 1.31431 9.19721C1.23318 8.99388 1.13584 8.68659 1.11039 8.12409C1.0825 7.51411 1.07562 7.33108 1.07562 5.78803C1.07562 4.24499 1.0825 4.05975 1.11039 3.45206C1.13584 2.88727 1.23318 2.58227 1.31431 2.37895C1.40938 2.12814 1.56006 1.90002 1.75944 1.71469C1.95177 1.52266 2.18357 1.37581 2.44091 1.28324C2.64953 1.20417 2.96482 1.1093 3.54197 1.08441C4.16784 1.05732 4.35564 1.05052 5.93879 1.05052C7.52438 1.05052 7.71208 1.05732 8.33569 1.08441C8.9152 1.1093 9.22813 1.20417 9.43675 1.28324C9.694 1.37581 9.92816 1.52266 10.1182 1.71469C10.3153 1.90222 10.4659 2.12814 10.561 2.37895C10.6421 2.58227 10.7395 2.88947 10.765 3.45206C10.7928 4.06205 10.7998 4.24499 10.7998 5.78803C10.7998 7.33108 10.7928 7.51181 10.765 8.1218Z" fill="#080415"/>
<path d="M5.93359 2.81295C4.25075 2.81295 2.88538 4.14358 2.88538 5.78379C2.88538 7.424 4.25075 8.75463 5.93359 8.75463C7.61652 8.75463 8.98181 7.424 8.98181 5.78379C8.98181 4.14358 7.61652 2.81295 5.93359 2.81295ZM5.93359 7.7109C4.84185 7.7109 3.95629 6.8479 3.95629 5.78379C3.95629 4.71967 4.84185 3.85668 5.93359 3.85668C7.02542 3.85668 7.91089 4.71967 7.91089 5.78379C7.91089 6.8479 7.02542 7.7109 5.93359 7.7109Z" fill="#080415"/>
<path d="M9.81417 2.69516C9.81417 3.07809 9.49559 3.38858 9.1026 3.38858C8.70969 3.38858 8.39111 3.07809 8.39111 2.69516C8.39111 2.31214 8.70969 2.00174 9.1026 2.00174C9.49559 2.00174 9.81417 2.31214 9.81417 2.69516Z" fill="#080415"/>
</svg>
