<svg width="11" height="13" viewBox="0 0 11 13" fill="none" xmlns="http://www.w3.org/2000/svg">
<path d="M10.0212 7.42009C9.96243 7.48045 9.74043 7.7385 9.53364 7.95077C8.32128 9.28578 5.15861 11.4709 3.50327 12.1379C3.25188 12.2451 2.6163 12.4719 2.27672 12.4865C1.95133 12.4865 1.64114 12.4116 1.34515 12.2596C0.976172 12.0474 0.680178 11.7134 0.517989 11.319C0.413581 11.0453 0.251392 10.2264 0.251392 10.2119C0.0892037 9.31596 0 7.86024 0 6.25157C0 4.71885 0.0892037 3.32245 0.221995 2.41301C0.237201 2.39845 0.399389 1.3808 0.576783 1.03222C0.902173 0.395405 1.53775 0 2.21793 0H2.27672C2.7197 0.0156081 3.65127 0.411014 3.65127 0.425581C5.2174 1.09361 8.30709 3.17157 9.54885 4.55236C9.54885 4.55236 9.89857 4.90719 10.0506 5.12882C10.2878 5.44723 10.4054 5.84159 10.4054 6.23596C10.4054 6.67611 10.2726 7.08608 10.0212 7.42009Z" fill="#5D3BEE"/>
</svg>
